ISO-10303-21;
HEADER;
FILE_DESCRIPTION(('InterfaceForge Adapter Model Rev 1'),'2;1');
FILE_NAME('interfaceforge_adapter_rev1.step','2026-07-27T15:54:36.184209+00:00',('InterfaceForge'),('Makeathon 2026'),'InterfaceForge Compiler','Zoo API','');
FILE_SCHEMA(('AUTOMOTIVE_DESIGN { 1 0 10303 214 1 1 1 1 }'));
ENDSEC;
DATA;
#10=CARTESIAN_POINT('',(25.3000,0.0000,0.0000));
#11=CARTESIAN_POINT('',(23.3742,9.6819,0.0000));
#12=CARTESIAN_POINT('',(17.8898,17.8898,0.0000));
#13=CARTESIAN_POINT('',(9.6819,23.3742,0.0000));
#14=CARTESIAN_POINT('',(0.0000,25.3000,0.0000));
#15=CARTESIAN_POINT('',(-9.6819,23.3742,0.0000));
#16=CARTESIAN_POINT('',(-17.8898,17.8898,0.0000));
#17=CARTESIAN_POINT('',(-23.3742,9.6819,0.0000));
#18=CARTESIAN_POINT('',(-25.3000,0.0000,0.0000));
#19=CARTESIAN_POINT('',(-23.3742,-9.6819,0.0000));
#20=CARTESIAN_POINT('',(-17.8898,-17.8898,0.0000));
#21=CARTESIAN_POINT('',(-9.6819,-23.3742,0.0000));
#22=CARTESIAN_POINT('',(-0.0000,-25.3000,0.0000));
#23=CARTESIAN_POINT('',(9.6819,-23.3742,0.0000));
#24=CARTESIAN_POINT('',(17.8898,-17.8898,0.0000));
#25=CARTESIAN_POINT('',(23.3742,-9.6819,0.0000));
#26=CARTESIAN_POINT('',(22.3000,0.0000,0.0000));
#27=CARTESIAN_POINT('',(20.6025,8.5338,0.0000));
#28=CARTESIAN_POINT('',(15.7685,15.7685,0.0000));
#29=CARTESIAN_POINT('',(8.5338,20.6025,0.0000));
#30=CARTESIAN_POINT('',(0.0000,22.3000,0.0000));
#31=CARTESIAN_POINT('',(-8.5338,20.6025,0.0000));
#32=CARTESIAN_POINT('',(-15.7685,15.7685,0.0000));
#33=CARTESIAN_POINT('',(-20.6025,8.5338,0.0000));
#34=CARTESIAN_POINT('',(-22.3000,0.0000,0.0000));
#35=CARTESIAN_POINT('',(-20.6025,-8.5338,0.0000));
#36=CARTESIAN_POINT('',(-15.7685,-15.7685,0.0000));
#37=CARTESIAN_POINT('',(-8.5338,-20.6025,0.0000));
#38=CARTESIAN_POINT('',(-0.0000,-22.3000,0.0000));
#39=CARTESIAN_POINT('',(8.5338,-20.6025,0.0000));
#40=CARTESIAN_POINT('',(15.7685,-15.7685,0.0000));
#41=CARTESIAN_POINT('',(20.6025,-8.5338,0.0000));
#42=CARTESIAN_POINT('',(25.2000,0.0000,50.0000));
#43=CARTESIAN_POINT('',(23.2818,9.6436,50.0000));
#44=CARTESIAN_POINT('',(17.8191,17.8191,50.0000));
#45=CARTESIAN_POINT('',(9.6436,23.2818,50.0000));
#46=CARTESIAN_POINT('',(0.0000,25.2000,50.0000));
#47=CARTESIAN_POINT('',(-9.6436,23.2818,50.0000));
#48=CARTESIAN_POINT('',(-17.8191,17.8191,50.0000));
#49=CARTESIAN_POINT('',(-23.2818,9.6436,50.0000));
#50=CARTESIAN_POINT('',(-25.2000,0.0000,50.0000));
#51=CARTESIAN_POINT('',(-23.2818,-9.6436,50.0000));
#52=CARTESIAN_POINT('',(-17.8191,-17.8191,50.0000));
#53=CARTESIAN_POINT('',(-9.6436,-23.2818,50.0000));
#54=CARTESIAN_POINT('',(-0.0000,-25.2000,50.0000));
#55=CARTESIAN_POINT('',(9.6436,-23.2818,50.0000));
#56=CARTESIAN_POINT('',(17.8191,-17.8191,50.0000));
#57=CARTESIAN_POINT('',(23.2818,-9.6436,50.0000));
#58=CARTESIAN_POINT('',(22.2000,0.0000,50.0000));
#59=CARTESIAN_POINT('',(20.5101,8.4956,50.0000));
#60=CARTESIAN_POINT('',(15.6978,15.6978,50.0000));
#61=CARTESIAN_POINT('',(8.4956,20.5101,50.0000));
#62=CARTESIAN_POINT('',(0.0000,22.2000,50.0000));
#63=CARTESIAN_POINT('',(-8.4956,20.5101,50.0000));
#64=CARTESIAN_POINT('',(-15.6978,15.6978,50.0000));
#65=CARTESIAN_POINT('',(-20.5101,8.4956,50.0000));
#66=CARTESIAN_POINT('',(-22.2000,0.0000,50.0000));
#67=CARTESIAN_POINT('',(-20.5101,-8.4956,50.0000));
#68=CARTESIAN_POINT('',(-15.6978,-15.6978,50.0000));
#69=CARTESIAN_POINT('',(-8.4956,-20.5101,50.0000));
#70=CARTESIAN_POINT('',(-0.0000,-22.2000,50.0000));
#71=CARTESIAN_POINT('',(8.4956,-20.5101,50.0000));
#72=CARTESIAN_POINT('',(15.6978,-15.6978,50.0000));
#73=CARTESIAN_POINT('',(20.5101,-8.4956,50.0000));
#74=DIRECTION('',(0.,0.,1.));
#75=DIRECTION('',(1.,0.,0.));
#76=AXIS2_PLACEMENT_3D('',##10,#74,#75);
#77=CLOSED_SHELL('AdapterShell',());
#78=MANIFOLD_SOLID_BREP('AdapterSolid',#77);
ENDSEC;
END-ISO-10303-21;